# File created by Blade
# Date/Time:  Mon Sep 22 16:45:27 2014
# Frame Rate: 120.000 fps
#------------------------------------------------------
:FULLY-SPECIFIED
:DEGREES
3645
root 3.986320 39.928315 -0.397602 42.486535 29.645395 65.610003
RightUpLeg 0.253733 -18.384023 -48.353074
RightLeg 16.528275 -0.000000 -0.000000
RightFoot -24.948283 -22.030158 22.678106
RightToeBase 6.207361 -0.000000 -0.000000
LeftUpLeg -39.546451 47.813517 6.949046
LeftLeg 121.128064 -0.000000 -0.000000
LeftFoot 31.821114 13.566157 -34.356914
LeftToeBase -1.200341 -0.000000 0.000000
Spine 14.149913 -13.040170 -14.853643
RightShoulder -8.912047 -10.168891 -28.964961
RightArm -26.835575 73.289597 26.274458
RightForeArm -13.573790 -0.000000 141.547846
RightHand -7.982023 -0.000000 -27.775212
RightHandThumb1 -24.326973 -0.000000 -32.862282
LeftShoulder -27.615223 31.956871 -12.614519
LeftArm 23.533335 -5.693015 -63.414340
LeftForeArm 38.452295 -0.000000 96.700375
LeftHand -12.636581 -0.000000 -3.515827
LeftHandThumb1 -26.253704 0.000000 33.147579
Head -8.881463 -28.326426 -13.913055
3646
root 3.980548 39.906145 -0.404087 42.466083 30.111227 65.827937
RightUpLeg 0.661723 -18.108028 -48.231055
RightLeg 16.656721 -0.000000 -0.000000
RightFoot -25.232463 -22.472458 22.836176
RightToeBase 6.208783 -0.000000 -0.000000
LeftUpLeg -40.823955 48.519774 5.844863
LeftLeg 121.570221 -0.000000 -0.000000
LeftFoot 31.985865 13.387132 -34.469247
LeftToeBase -1.417650 -0.000000 0.000000
Spine 14.576342 -13.395708 -14.667675
RightShoulder -9.012279 -10.057449 -28.996700
RightArm -27.806417 73.437430 25.269549
RightForeArm -13.416454 -0.000000 141.465925
RightHand -7.941996 -0.000000 -27.840026
RightHandThumb1 -24.326973 -0.000000 -32.862282
LeftShoulder -27.542672 31.885524 -12.476379
LeftArm 23.560211 -5.792686 -63.436894
LeftForeArm 38.362078 -0.000000 96.775822
LeftHand -12.701015 -0.000000 -3.510683
LeftHandThumb1 -26.253704 0.000000 33.147579
Head -9.231286 -28.379393 -13.715605
3647
root 3.975993 39.882390 -0.411503 42.442979 30.528059 66.055335
RightUpLeg 1.013171 -17.886546 -48.143436
RightLeg 16.852656 -0.000000 -0.000000
RightFoot -25.472554 -22.951329 22.829804
RightToeBase 6.222179 -0.000000 -0.000000
LeftUpLeg -41.978703 49.105514 4.784395
LeftLeg 121.983305 -0.000000 -0.000000
LeftFoot 32.173371 13.226309 -34.530721
LeftToeBase -1.536994 -0.000000 0.000000
Spine 14.992170 -13.739858 -14.546650
RightShoulder -8.966399 -9.866503 -29.090441
RightArm -29.511271 73.580708 23.646646
RightForeArm -13.187433 0.000000 141.399996
RightHand -7.898279 -0.000000 -27.961882
RightHandThumb1 -24.326973 -0.000000 -32.862282
LeftShoulder -27.500363 31.836830 -12.344114
LeftArm 23.629985 -5.917862 -63.478763
LeftForeArm 38.347776 -0.000000 96.810018
LeftHand -12.676416 -0.000000 -3.507259
LeftHandThumb1 -26.253704 0.000000 33.147579
Head -9.527715 -28.416088 -13.516909
3648
root 3.974793 39.861922 -0.418401 42.445397 30.866747 66.323969
RightUpLeg 1.326580 -17.839893 -48.165162
RightLeg 17.079815 -0.000000 -0.000000
RightFoot -25.643319 -23.257230 22.802989
RightToeBase 6.101972 -0.000000 -0.000000
LeftUpLeg -42.972626 49.565971 3.745627
LeftLeg 122.354904 -0.000000 -0.000000
LeftFoot 32.348000 13.076638 -34.593440
LeftToeBase -1.664722 -0.000000 0.000000
Spine 15.346120 -14.036562 -14.511293
RightShoulder -9.070454 -9.984022 -29.115946
RightArm -29.645465 73.856617 23.510092
RightForeArm -13.055929 -0.000000 141.344396
RightHand -7.831304 -0.000000 -28.321559
RightHandThumb1 -24.326973 -0.000000 -32.862282
LeftShoulder -27.402190 31.805720 -12.190056
LeftArm 23.639987 -6.077543 -63.480326
LeftForeArm 38.214817 -0.000000 96.879765
LeftHand -12.700981 -0.000000 -3.448115
LeftHandThumb1 -26.253704 0.000000 33.147579
Head -9.675041 -28.450259 -13.374824
3649
root 3.976972 39.841166 -0.423480 42.439424 31.147096 66.568699
RightUpLeg 1.589668 -17.917967 -48.223927
RightLeg 17.323093 -0.000000 -0.000000
RightFoot -25.933634 -23.330579 22.906994
RightToeBase 6.378800 -0.000000 -0.000000
LeftUpLeg -43.791183 49.941242 2.824708
LeftLeg 122.699925 -0.000000 -0.000000
LeftFoot 32.520825 12.953878 -34.684824
LeftToeBase -1.827659 -0.000000 0.000000
Spine 15.668164 -14.279380 -14.507327
RightShoulder -9.090561 -9.851403 -29.150544
RightArm -30.686547 73.963122 22.459002
RightForeArm -12.905002 -0.000000 141.305219
RightHand -7.897166 -0.000000 -28.489675
RightHandThumb1 -24.326973 -0.000000 -32.862282
LeftShoulder -27.367568 31.779671 -12.081350
LeftArm 23.716617 -6.233689 -63.452278
LeftForeArm 38.137939 -0.000000 96.925760
LeftHand -12.716986 -0.000000 -3.349823
LeftHandThumb1 -26.253704 0.000000 33.147579
Head -9.784638 -28.418910 -13.218040
3650
root 3.980316 39.821574 -0.428982 42.453954 31.330430 66.767610
RightUpLeg 1.719405 -18.098460 -48.314992
RightLeg 17.611389 -0.000000 -0.000000
RightFoot -26.106913 -23.328234 22.873765
RightToeBase 6.453094 -0.000000 -0.000000
LeftUpLeg -44.488740 50.284924 1.966218
LeftLeg 123.006924 -0.000000 -0.000000
LeftFoot 32.648282 12.842153 -34.712244
LeftToeBase -2.023468 -0.000000 0.000000
Spine 15.854596 -14.445860 -14.521953
RightShoulder -9.133559 -9.850927 -29.205875
RightArm -30.956234 74.089990 22.196429
RightForeArm -12.860242 -0.000000 141.288112
RightHand -7.839003 -0.000000 -28.334238
RightHandThumb1 -24.326973 -0.000000 -32.862282
LeftShoulder -27.231390 31.703229 -11.919431
LeftArm 23.607428 -6.411564 -63.410949
LeftForeArm 37.997316 -0.000000 97.010402
LeftHand -12.675880 -0.000000 -3.283129
LeftHandThumb1 -26.253704 0.000000 33.147579
Head -9.715195 -28.394968 -13.179613
3651
root 3.987877 39.805620 -0.431420 42.451032 31.415585 66.925625
RightUpLeg 1.783886 -18.328929 -48.454202
RightLeg 17.887890 -0.000000 -0.000000
RightFoot -26.183669 -23.237331 22.776889
RightToeBase 6.370117 -0.000000 -0.000000
LeftUpLeg -44.947347 50.577883 1.269066
LeftLeg 123.261461 -0.000000 -0.000000
LeftFoot 32.776656 12.722089 -34.756494
LeftToeBase -2.060670 -0.000000 0.000000
Spine 15.987080 -14.501142 -14.576021
RightShoulder -9.193510 -9.816081 -29.236294
RightArm -31.201784 74.163749 21.932498
RightForeArm -12.923158 -0.000000 141.278394
RightHand -7.937199 -0.000000 -27.955510
RightHandThumb1 -24.326973 -0.000000 -32.862282
LeftShoulder -27.131363 31.670252 -11.807508
LeftArm 23.564797 -6.609809 -63.350769
LeftForeArm 37.888504 -0.000000 97.088572
LeftHand -12.669918 0.000000 -3.302253
LeftHandThumb1 -26.253704 0.000000 33.147579
Head -9.568965 -28.384678 -13.162115
3652
root 3.998097 39.791825 -0.429667 42.420162 31.424693 67.021001
RightUpLeg 1.798507 -18.564613 -48.597447
RightLeg 18.131647 -0.000000 -0.000000
RightFoot -26.226346 -23.054370 22.643656
RightToeBase 6.385737 -0.000000 -0.000000
LeftUpLeg -45.209948 50.857503 0.738192
LeftLeg 123.476163 -0.000000 -0.000000
LeftFoot 32.820792 12.679665 -34.775917
LeftToeBase -2.159775 -0.000000 0.000000
Spine 16.049309 -14.499764 -14.638801
RightShoulder -9.211617 -9.774576 -29.264557
RightArm -31.329354 74.224499 21.766073
RightForeArm -12.948381 -0.000000 141.293426
RightHand -7.987304 0.000000 -27.816044
RightHandThumb1 -24.326973 -0.000000 -32.862282
LeftShoulder -27.062824 31.654457 -11.750648
LeftArm 23.513373 -6.817458 -63.277455
LeftForeArm 37.739925 0.000000 97.160031
LeftHand -12.638905 -0.000000 -3.229754
LeftHandThumb1 -26.253704 0.000000 33.147579
Head -9.345942 -28.371240 -13.209747
3653
root 4.005752 39.778547 -0.428940 42.397293 31.421900 67.025168
RightUpLeg 1.731820 -18.775833 -48.656385
RightLeg 18.345387 -0.000000 -0.000000
RightFoot -26.275761 -22.870527 22.550662
RightToeBase 6.422173 -0.000000 -0.000000
LeftUpLeg -45.391307 51.059224 0.353590
LeftLeg 123.663493 -0.000000 -0.000000
LeftFoot 32.852471 12.643805 -34.821861
LeftToeBase -2.350037 -0.000000 0.000000
Spine 16.025258 -14.495153 -14.608207
RightShoulder -9.202947 -9.708363 -29.303736
RightArm -31.452284 74.275823 21.577671
RightForeArm -12.942294 -0.000000 141.317279
RightHand -8.010797 -0.000000 -27.704711
RightHandThumb1 -24.326973 -0.000000 -32.862282
LeftShoulder -27.031722 31.585957 -11.733734
LeftArm 23.444521 -6.990751 -63.219035
LeftForeArm 37.617003 -0.000000 97.208719
LeftHand -12.856162 -0.000000 -3.081536
LeftHandThumb1 -26.253704 0.000000 33.147579
Head -9.113718 -28.341957 -13.313495
3654
root 4.014893 39.767880 -0.426031 42.342302 31.382730 66.977558
RightUpLeg 1.654377 -18.875652 -48.682683
RightLeg 18.496732 -0.000000 -0.000000
RightFoot -26.329535 -22.717993 22.497759
RightToeBase 6.422011 -0.000000 -0.000000
LeftUpLeg -45.361757 51.203350 0.175771
LeftLeg 123.799941 -0.000000 -0.000000
LeftFoot 32.855985 12.586508 -34.860225
LeftToeBase -2.368139 -0.000000 0.000000
Spine 15.968325 -14.429671 -14.554355
RightShoulder -9.215344 -9.714775 -29.342134
RightArm -31.235466 74.368145 21.719870
RightForeArm -13.023081 -0.000000 141.364233
RightHand -8.084346 -0.000000 -27.559545
RightHandThumb1 -24.326973 -0.000000 -32.862282
LeftShoulder -27.037887 31.568743 -11.767414
LeftArm 23.457749 -7.172733 -63.183232
LeftForeArm 37.519275 -0.000000 97.211758
LeftHand -13.011095 -0.000000 -2.955225
LeftHandThumb1 -26.253704 0.000000 33.147579
Head -8.809882 -28.406005 -13.481600
3655
root 4.025985 39.758209 -0.420343 42.269971 31.355749 66.899542
RightUpLeg 1.602375 -18.887489 -48.663920
RightLeg 18.590728 -0.000000 -0.000000
RightFoot -26.373111 -22.633731 22.475801
RightToeBase 6.440932 -0.000000 -0.000000
LeftUpLeg -45.155178 51.239023 0.199711
LeftLeg 123.894547 -0.000000 -0.000000
LeftFoot 32.828871 12.508781 -34.858689
LeftToeBase -2.409542 -0.000000 0.000000
Spine 15.892104 -14.383153 -14.462206
RightShoulder -9.149163 -9.705388 -29.395924
RightArm -31.392889 74.450676 21.502097
RightForeArm -13.008509 -0.000000 141.411486
RightHand -8.079334 -0.000000 -27.517754
RightHandThumb1 -24.326973 -0.000000 -32.862282
LeftShoulder -26.986471 31.497734 -11.774590
LeftArm 23.329547 -7.326927 -63.167372
LeftForeArm 37.376365 -0.000000 97.259602
LeftHand -13.080598 -0.000000 -2.924927
LeftHandThumb1 -26.253704 0.000000 33.147579
Head -8.498418 -28.396761 -13.682388
3656
root 4.039250 39.750149 -0.410893 42.168072 31.380109 66.817987
RightUpLeg 1.639189 -18.814959 -48.605217
RightLeg 18.615368 -0.000000 -0.000000
RightFoot -26.453762 -22.617596 22.532601
RightToeBase 6.453554 -0.000000 -0.000000
LeftUpLeg -44.772889 51.164443 0.435270
LeftLeg 123.952481 -0.000000 -0.000000
LeftFoot 32.841885 12.368861 -34.668991
LeftToeBase -2.724384 -0.000000 0.000000
Spine 15.856062 -14.359076 -14.333647
RightShoulder -9.089467 -9.639582 -29.437937
RightArm -31.629636 74.465581 21.179260
RightForeArm -12.986451 -0.000000 141.464865
RightHand -8.093853 -0.000000 -27.554615
RightHandThumb1 -24.326973 -0.000000 -32.862282
LeftShoulder -26.968288 31.447979 -11.793678
LeftArm 23.280934 -7.490175 -63.222347
LeftForeArm 37.235078 -0.000000 97.250532
LeftHand -13.026697 0.000000 -2.906088
LeftHandThumb1 -26.253704 0.000000 33.147579
Head -8.218749 -28.443589 -13.863849
